<?xml version="1.0" encoding="UTF-8" standalone="no"?>
<!DOCTYPE svg PUBLIC "-//W3C//DTD SVG 1.1//EN" "http://www.w3.org/Graphics/SVG/1.1/DTD/svg11.dtd">
<!-- Generated by Microsoft Visio, SVG Export RPD.svg Page-1 -->
<svg xmlns="http://www.w3.org/2000/svg" xmlns:xlink="http://www.w3.org/1999/xlink" xmlns:ev="http://www.w3.org/2001/xml-events"
		xmlns:v="http://schemas.microsoft.com/visio/2003/SVGExtensions/" width="11.7847in" height="4.72412in"
		viewBox="0 0 848.5 340.137" xml:space="preserve" color-interpolation-filters="sRGB" class="st13">
	<v:documentProperties v:langID="1033" v:viewMarkup="false"/>

	<style type="text/css">
	<![CDATA[
		.st1 {fill:none;stroke:none;stroke-linecap:butt;stroke-width:1.25}
		.st2 {fill:#696969;font-family:Calibri;font-size:1.5em}
		.st3 {font-size:1em}
		.st4 {fill:#7e7e7e;stroke:#686868;stroke-linecap:butt;stroke-width:1.25}
		.st5 {fill:#ffffff;font-family:Calibri;font-size:1.00001em;font-weight:bold}
		.st6 {marker-end:url(#mrkr5-43);stroke:#4c5a69;stroke-linecap:butt;stroke-width:2}
		.st7 {fill:#4c5a69;fill-opacity:1;stroke:#4c5a69;stroke-opacity:1;stroke-width:0.44247787610619}
		.st8 {marker-end:url(#mrkr4-64);stroke:#4c5a69;stroke-linecap:butt;stroke-width:2}
		.st9 {fill:#4c5a69;fill-opacity:1;stroke:#4c5a69;stroke-opacity:1;stroke-width:0.52631578947368}
		.st10 {marker-end:url(#mrkr5-75);stroke:#696969;stroke-linecap:butt;stroke-width:5}
		.st11 {fill:#696969;fill-opacity:1;stroke:#696969;stroke-opacity:1;stroke-width:0.66489361702128}
		.st12 {marker-end:url(#mrkr5-81);stroke:#696969;stroke-linecap:butt;stroke-width:5}
		.st13 {fill:none;fill-rule:evenodd;font-size:12px;overflow:visible;stroke-linecap:square;stroke-miterlimit:3}
	]]>
	</style>

	<defs id="Markers">
		<g id="lend5">
			<path d="M 2 1 L 0 0 L 1.98117 -0.993387 C 1.67173 -0.364514 1.67301 0.372642 1.98465 1.00043 " style="stroke:none"/>
		</g>
		<marker id="mrkr5-43" class="st7" v:arrowType="5" v:arrowSize="2" v:setback="3.955" refX="-3.955" orient="auto"
				markerUnits="strokeWidth" overflow="visible">
			<use xlink:href="#lend5" transform="scale(-2.26,-2.26) "/>
		</marker>
		<g id="lend4">
			<path d="M 2 1 L 0 0 L 2 -1 L 2 1 " style="stroke:none"/>
		</g>
		<marker id="mrkr4-64" class="st9" v:arrowType="4" v:arrowSize="1" v:setback="3.62" refX="-3.62" orient="auto"
				markerUnits="strokeWidth" overflow="visible">
			<use xlink:href="#lend4" transform="scale(-1.9,-1.9) "/>
		</marker>
		<marker id="mrkr5-75" class="st11" v:arrowType="5" v:arrowSize="2" v:setback="2.56" refX="-2.56" orient="auto"
				markerUnits="strokeWidth" overflow="visible">
			<use xlink:href="#lend5" transform="scale(-1.504,-1.504) "/>
		</marker>
		<marker id="mrkr5-81" class="st11" v:arrowType="5" v:arrowSize="2" v:setback="2.632" refX="-2.632" orient="auto"
				markerUnits="strokeWidth" overflow="visible">
			<use xlink:href="#lend5" transform="scale(-1.504,-1.504) "/>
		</marker>
	</defs>
	<g v:mID="0" v:index="1" v:groupContext="foregroundPage">
		<title>Page-1</title>
		<v:pageProperties v:drawingScale="1" v:pageScale="1" v:drawingUnits="0" v:shadowOffsetX="9" v:shadowOffsetY="-9"/>
		<v:layer v:name="Connector" v:index="0"/>
		<g id="shape2-1" v:mID="2" v:groupContext="shape" transform="translate(1.25,-138.315)">
			<title>Sheet.2</title>
			<desc>Observe group dynamics as staff is centralized</desc>
			<v:textBlock v:margins="rect(2,2,2,2)"/>
			<v:textRect cx="72" cy="295.137" width="144" height="90"/>
			<rect x="0" y="250.137" width="144" height="90" class="st1"/>
			<text x="18.02" y="278.94" class="st2" v:langID="1033"><v:paragraph v:horizAlign="1"/><v:tabList/>Observe group <tspan
						x="9.34" dy="1.2em" class="st3">dynamics as staff </tspan><tspan x="24.01" dy="1.2em" class="st3">is centralized</tspan></text>		</g>
		<g id="shape3-6" v:mID="3" v:groupContext="shape" transform="translate(181.25,-138.315)">
			<title>Sheet.3</title>
			<desc>Recognize developing negative group dynamics</desc>
			<v:textBlock v:margins="rect(2,2,2,2)"/>
			<v:textRect cx="72" cy="295.137" width="144" height="90"/>
			<rect x="0" y="250.137" width="144" height="90" class="st1"/>
			<text x="35.02" y="268.14" class="st2" v:langID="1033"><v:paragraph v:horizAlign="1"/><v:tabList/>Recognize <tspan
						x="31.68" dy="1.2em" class="st3">developing </tspan><tspan x="17.01" dy="1.2em" class="st3">negative group </tspan><tspan
						x="37.58" dy="1.2em" class="st3">dynamics</tspan></text>		</g>
		<g id="shape4-12" v:mID="4" v:groupContext="shape" transform="translate(361.25,-138.315)">
			<title>Sheet.4</title>
			<desc>Identify a solution to negative group dynamics</desc>
			<v:textBlock v:margins="rect(2,2,2,2)"/>
			<v:textRect cx="72" cy="295.137" width="144" height="90"/>
			<rect x="0" y="250.137" width="144" height="90" class="st1"/>
			<text x="5.9" y="278.94" class="st2" v:langID="1033"><v:paragraph v:horizAlign="1"/><v:tabList/>Identify a solution <tspan
						x="7.22" dy="1.2em" class="st3">to negative group </tspan><tspan x="37.58" dy="1.2em" class="st3">dynamics</tspan></text>		</g>
		<g id="shape5-17" v:mID="5" v:groupContext="shape" transform="translate(541.25,-138.315)">
			<title>Sheet.5</title>
			<desc>Mentally simulate and iterate on solution</desc>
			<v:textBlock v:margins="rect(2,2,2,2)"/>
			<v:textRect cx="72" cy="295.137" width="144" height="90"/>
			<rect x="0" y="250.137" width="144" height="90" class="st1"/>
			<text x="6.16" y="278.94" class="st2" v:langID="1033"><v:paragraph v:horizAlign="1"/><v:tabList/>Mentally simulate <tspan
						x="20.19" dy="1.2em" class="st3">and iterate on </tspan><tspan x="42.39" dy="1.2em" class="st3">solution</tspan></text>		</g>
		<g id="shape6-22" v:mID="6" v:groupContext="shape" transform="translate(739.25,-138.315)">
			<title>Sheet.6</title>
			<desc>Implement solution</desc>
			<v:textBlock v:margins="rect(2,2,2,2)"/>
			<v:textRect cx="54" cy="295.137" width="108" height="90"/>
			<rect x="0" y="250.137" width="108" height="90" class="st1"/>
			<text x="13.86" y="289.74" class="st2" v:langID="1033"><v:paragraph v:horizAlign="1"/><v:tabList/>Implement <tspan
						x="24.39" dy="1.2em" class="st3">solution</tspan></text>		</g>
		<g id="shape7-26" v:mID="7" v:groupContext="shape" transform="translate(172.25,-246.315)">
			<title>Ellipse</title>
			<desc>Goals</desc>
			<v:userDefs>
				<v:ud v:nameU="visVersion" v:val="VT0(15):26"/>
			</v:userDefs>
			<v:textBlock v:margins="rect(4,4,4,4)"/>
			<v:textRect cx="27" cy="322.137" width="47.25" height="31.5"/>
			<path d="M0 322.14 A27 18 0 0 1 54 322.14 A27 18 0 1 1 0 322.14 Z" class="st4"/>
			<text x="13.12" y="325.74" class="st5" v:langID="1033"><v:paragraph v:horizAlign="1"/><v:tabList/>Goals</text>		</g>
		<g id="shape8-29" v:mID="8" v:groupContext="shape" transform="translate(280.25,-246.315)">
			<title>Ellipse.8</title>
			<desc>Cues</desc>
			<v:userDefs>
				<v:ud v:nameU="visVersion" v:val="VT0(15):26"/>
			</v:userDefs>
			<v:textBlock v:margins="rect(4,4,4,4)"/>
			<v:textRect cx="27" cy="322.137" width="47.25" height="31.5"/>
			<path d="M0 322.14 A27 18 0 0 1 54 322.14 A27 18 0 1 1 0 322.14 Z" class="st4"/>
			<text x="15.19" y="325.74" class="st5" v:langID="1033"><v:paragraph v:horizAlign="1"/><v:tabList/>Cues</text>		</g>
		<g id="shape9-32" v:mID="9" v:groupContext="shape" transform="translate(208.25,-300.315)">
			<title>Ellipse.9</title>
			<desc>Expectancies</desc>
			<v:userDefs>
				<v:ud v:nameU="visVersion" v:val="VT0(15):26"/>
			</v:userDefs>
			<v:textBlock v:margins="rect(4,4,4,4)"/>
			<v:textRect cx="45" cy="320.851" width="78.75" height="33.75"/>
			<path d="M0 320.85 A45 19.2857 0 0 1 90 320.85 A45 19.2857 0 1 1 0 320.85 Z" class="st4"/>
			<text x="12.9" y="324.45" class="st5" v:langID="1033"><v:paragraph v:horizAlign="1"/><v:tabList/>Expectancies</text>		</g>
		<g id="shape10-35" v:mID="10" v:groupContext="shape" transform="translate(226.25,-66.3152)">
			<title>Ellipse.10</title>
			<desc>Actions</desc>
			<v:userDefs>
				<v:ud v:nameU="visVersion" v:val="VT0(15):26"/>
			</v:userDefs>
			<v:textBlock v:margins="rect(4,4,4,4)"/>
			<v:textRect cx="27" cy="322.137" width="47.25" height="31.5"/>
			<path d="M0 322.14 A27 18 0 0 1 54 322.14 A27 18 0 1 1 0 322.14 Z" class="st4"/>
			<text x="8.46" y="325.74" class="st5" v:langID="1033"><v:paragraph v:horizAlign="1"/><v:tabList/>Actions</text>		</g>
		<g id="shape11-38" v:mID="11" v:groupContext="shape" v:layerMember="0" transform="translate(244.25,-300.315)">
			<title>Dynamic connector</title>
			<path d="M9 340.14 L9 404.23" class="st6"/>
		</g>
		<g id="shape12-44" v:mID="12" v:groupContext="shape" v:layerMember="0" transform="translate(288.027,-252.781)">
			<title>Dynamic connector.12</title>
			<path d="M-1.5 340.14 L-12.36 357.86" class="st6"/>
		</g>
		<g id="shape13-49" v:mID="13" v:groupContext="shape" v:layerMember="0" transform="translate(216.272,-251.252)">
			<title>Dynamic connector.13</title>
			<path d="M1.55 340.14 L12.14 356.44" class="st6"/>
		</g>
		<g id="shape14-54" v:mID="14" v:groupContext="shape" v:layerMember="0" transform="translate(244.25,-102.315)">
			<title>Dynamic connector.14</title>
			<path d="M9 340.14 L9 312.05" class="st6"/>
		</g>
		<g id="shape15-59" v:mID="15" v:groupContext="shape" v:layerMember="0" transform="translate(572.75,-212.003)">
			<title>Center to center 1</title>
			<v:userDefs>
				<v:ud v:nameU="ScaleFactor" v:val="VT0(1):26"/>
				<v:ud v:nameU="visVersion" v:val="VT0(15):26"/>
			</v:userDefs>
			<path d="M0.45 339.11 A45.2898 45.2898 0 0 1 79.24 333.21 L79.41 333.53" class="st8"/>
		</g>
		<g id="shape16-65" v:mID="16" v:groupContext="shape" v:layerMember="0" transform="translate(655.25,523.958) rotate(180)">
			<title>Center to center 1.16</title>
			<v:userDefs>
				<v:ud v:nameU="ScaleFactor" v:val="VT0(1):26"/>
				<v:ud v:nameU="visVersion" v:val="VT0(15):26"/>
			</v:userDefs>
			<path d="M0.45 339.11 A45.2898 45.2898 0 0 1 79.24 333.21 L79.41 333.53" class="st8"/>
		</g>
		<g id="shape17-70" v:mID="17" v:groupContext="shape" v:layerMember="0" transform="translate(793.25,-129.315)">
			<title>Dynamic connector.17</title>
			<path d="M0 331.14 C-17.49 492.89 -684.82 489.01 -718.69 344.23 L-718.72 343.87" class="st10"/>
		</g>
		<g id="shape18-76" v:mID="18" v:groupContext="shape" v:layerMember="0" transform="translate(145.25,-174.315)">
			<title>Dynamic connector.18</title>
			<path d="M0 331.14 L22.84 331.14" class="st12"/>
		</g>
		<g id="shape19-82" v:mID="19" v:groupContext="shape" v:layerMember="0" transform="translate(325.25,-174.315)">
			<title>Dynamic connector.19</title>
			<path d="M0 331.14 L22.84 331.14" class="st12"/>
		</g>
		<g id="shape20-87" v:mID="20" v:groupContext="shape" v:layerMember="0" transform="translate(505.25,-174.315)">
			<title>Dynamic connector.20</title>
			<path d="M0 331.14 L22.84 331.14" class="st12"/>
		</g>
		<g id="shape21-92" v:mID="21" v:groupContext="shape" v:layerMember="0" transform="translate(685.25,-174.315)">
			<title>Dynamic connector.21</title>
			<path d="M0 331.14 L40.84 331.14" class="st12"/>
		</g>
	</g>
</svg>
